#!OML:ASF E:/inclinewalkrobotboard/Project1/Captureday1/Session1/subject1.ASF
:FULLY-SPECIFIED
:DEGREES
138
root 0 0 0 -0.39252702123977135 -2.0265343404576375 -3.8797192179239413
lowerback 16.464422735437633 1.1148237678616972 -0.10939807522318812
upperback 0.7026689362524553 1.4628971173533678 0.3311045304615219
thorax -8.552017048551507 0.693399118446739 0.048418473036305865
lowerneck -7.4661641371473575 -3.277174109148097 1.2644567808746854
upperneck -5.61939506060591 -4.261473591606078 1.7789223854943008
head -0.6085789169122187 -2.2025704950939775 0.2534523761604555
rclavicle -3.784580678347033E-16 1.5047639733718916E-17
rhumerus 12.056747311815961 0.4504799669015451 -39.48859672138636
rradius 118.63927960086778
rwrist -30.739802406071355
rhand -11.69860875723881 -36.450121322971235
rfingers 7.125019999999963
rthumb 14.386101153088742 -65.86896617668478
lclavicle -4.1497825796279975E-16 -4.676243967541044E-16
lhumerus -43.27555452697348 -0.39047092762491253 83.14214104307288
lradius 45.177282595262895
lwrist 1.9762203504198483
lhand -15.659139367665714 -11.971240422929764
lfingers 7.125019999999932
lthumb 10.486557131592178 17.15808429968464
rfemur -2.7959828386289525 1.0408981996167004 5.592615915445549
rtibia 8.37236358056249
rfoot -1.5762514248464923 -1.3644048498606134
rtoes 0.8022985094402659
lfemur -6.52000466741163 -3.566711523747461 -12.246222829864085
ltibia 27.4175918775142
lfoot -19.247269545329583 7.953535070220843
ltoes -43.248968898105
139
root 0 0 0 -0.3922110669230875 -2.0272003982557982 -3.878397567888002
lowerback 16.467114661475698 1.111101067692574 -0.11175000135030155
upperback 0.7007812174393736 1.4575950808104636 0.33179132887099927
thorax -8.555925682306528 0.6908311610055367 0.051008454034798256
lowerneck -7.4660192647951815 -3.2733297909348904 1.2701603995219122
upperneck -5.645373161614696 -4.254706568113251 1.7706796416056279
head -0.6170015678782068 -2.2001689660246213 0.2507457010003591
rclavicle -3.798287380145724E-16 1.5314281145832904E-17
rhumerus 12.04900402671855 0.45681204480409576 -39.492063632012915
rradius 118.64025088363555
rwrist -30.74029611648804
rhand -11.694943543289039 -36.46421636501796
rfingers 7.125019999999963
rthumb 14.389287171504968 -65.88290468775699
lclavicle -4.129241871785417E-16 -4.681283337894488E-16
lhumerus -43.28093564744359 -0.3905074648200819 83.14190422806196
lradius 45.185096982426785
lwrist 1.975113206427229
lhand -15.654311986260563 -11.98585879371029
lfingers 7.125019999999932
lthumb 10.491091340362198 17.14372021638794
rfemur -2.797712780390638 1.0412206797546715 5.594919836395025
rtibia 8.377171190154607
rfoot -1.5773005096585488 -1.3652981048963788
rtoes 0.8022130426209193
lfemur -6.519375976892811 -3.5669708630071586 -12.245504982483125
ltibia 27.416456484873475
lfoot -19.248481598054823 7.954332772541358
ltoes -43.252148172045
140
root 0 0 0 -0.3918795828172331 -2.0274967141411095 -3.8783351742013226
lowerback 16.469151621241934 1.1099767711422246 -0.1124630075354256
upperback 0.6997538987049695 1.4559557248277881 0.33181697460868487
thorax -8.558166076331837 0.6900328935025429 0.05154014098355075
lowerneck -7.465408521031198 -3.2721227899224954 1.2726136608787697
upperneck -5.659364979313512 -4.252559758699154 1.7678664758217988
head -0.6218411005438629 -2.1994551950109384 0.24980120448314214
rclavicle -3.795647742415976E-16 1.5468668605390778E-17
rhumerus 12.052078940758832 0.46195686920313506 -39.48809125675815
rradius 118.65227043950509
rwrist -30.745823713040327
rhand -11.69292921271724 -36.47623936994533
rfingers 7.125019999999963
rthumb 14.39118034996045 -65.89447381264594
lclavicle -4.12887405117777E-16 -4.680092343911572E-16
lhumerus -43.28310972877941 -0.39080098070657676 83.14209380847889
lradius 45.1888440027042
lwrist 1.974501948209069
lhand -15.651869883183002 -11.993517250979083
lfingers 7.125019999999932
lthumb 10.493295418646223 17.13651052096087
rfemur -2.8003803568439265 1.0423207309164586 5.600577636042846
rtibia 8.385015699638698
rfoot -1.5790466422693115 -1.3666935535328433
rtoes 0.8030603429057415
lfemur -6.518790153213931 -3.5673937755871754 -12.244001953130006
ltibia 27.41514846248069
lfoot -19.25126059640915 7.956807495764911
ltoes -43.26027965961424
141
root 0 0 0 -0.3911481286741937 -2.027524120840577 -3.879008087625609
lowerback 16.469252370528054 1.1100147760591303 -0.11231619426973727
upperback 0.6993079039302686 1.4559582667605968 0.33159039298411874
thorax -8.558674603263606 0.6900486247746644 0.05120008345667981
lowerneck -7.463458587535383 -3.2717784761992776 1.2737043004780686
upperneck -5.66381750366973 -4.252200523215684 1.7678137761715802
head -0.6238174464497135 -2.1993057954287583 0.24974687441096802
rclavicle -3.793817831280395E-16 1.5799553177685813E-17
rhumerus 12.058647237054025 0.47008085815221 -39.48043775920054
rradius 118.67328390173606
rwrist -30.755705872815597
rhand -11.689875213237325 -36.49540473487456
rfingers 7.125019999999963
rthumb 14.394063109339479 -65.91310726443442
lclavicle -4.127027887857773E-16 -4.675905432525775E-16
lhumerus -43.287458396181506 -0.39079699940225765 83.14289589633293
lradius 45.19525029158956
lwrist 1.972208895273127
lhand -15.646806246828895 -12.009620273002799
lfingers 7.125019999999932
lthumb 10.498095153064188 17.121187924277734
rfemur -2.7998921407609076 1.0422045090369103 5.5997486969063335
rtibia 8.383241516293225
rfoot -1.5789856093726597 -1.3664802401981073
rtoes 0.8028669597282849
lfemur -6.5175711441013755 -3.5683133270048155 -12.241095521567594
ltibia 27.412484537291377
lfoot -19.256496655239474 7.961387830651599
ltoes -43.275508608187856
142
root 0 0 0 -0.39285688643124184 -2.0270010791999615 -3.8792053253007106
lowerback 16.46950662186531 1.1131779458302746 -0.11074035825280348
upperback 0.7006483333284302 1.4605315942765271 0.3310586847045306
thorax -8.556953120958632 0.6922100276457802 0.04921795481150759
lowerneck -7.468007926541542 -3.2760415036711867 1.2675372198220423
upperneck -5.645913995582024 -4.258917682459522 1.774393648949121
head -0.6169790930659511 -2.201901664972873 0.2519541651216836
rclavicle -3.7863198144883825E-16 1.500524629571236E-17
rhumerus 12.056965755177337 0.4488649110706522 -39.48886594266193
rradius 118.6373641345079
rwrist -30.738625248943958
rhand -11.699264013940706 -36.44702974860181
rfingers 7.125019999999963
rthumb 14.385477163097242 -65.8659864524436
lclavicle -4.144902704822022E-16 -4.673994588361699E-16
lhumerus -43.27910000240429 -0.39029052149577625 83.14259797237072
lradius 45.1820409937024
lwrist 1.9744132384796471
lhand -15.655279103779282 -11.98333183148421
lfingers 7.125019999999932
lthumb 10.490209035223058 17.14638343100148
rfemur -2.7950200498529005 1.0405360319337273 5.590745164474866
rtibia 8.369764649993519
rfoot -1.57564623250485 -1.3639102336185212
rtoes 0.8021069034373769
lfemur -6.520418624197115 -3.566418458680017 -12.246964155904923
ltibia 27.41855564783374
lfoot -19.245837402044906 7.952302019558964
ltoes -43.24506767365662
